<svg xmlns="http://www.w3.org/2000/svg" width="122" height="21" viewBox="0 0 122 21" fill="none">
  <path d="M33.8023 6.82626V8.93168H30.2403V18.7188H27.7374V8.93168H24.1516V6.82626H33.8023Z" fill="black"/>
  <path d="M38.6336 10.1013C39.2539 10.382 39.7812 10.8333 40.154 11.4023C40.5236 11.9464 40.7632 12.5678 40.8545 13.2189C40.9257 13.7976 40.9513 14.3811 40.931 14.9639H34.5195C34.5553 15.8447 34.8637 16.463 35.4398 16.8186C35.823 17.0468 36.2633 17.161 36.7092 17.148C37.17 17.1694 37.6233 17.0264 37.9882 16.7446C38.1874 16.5782 38.3501 16.3727 38.4663 16.1407H40.8114C40.7045 16.7481 40.4054 17.3053 39.958 17.7305C39.1612 18.5851 38.0575 19.0124 36.6471 19.0124C35.5158 19.0293 34.4151 18.6462 33.5393 17.931C32.65 17.2101 32.2054 16.0365 32.2054 14.41C32.2054 12.8903 32.6094 11.723 33.4174 10.9082C34.2254 10.0934 35.2749 9.68678 36.5658 9.68837C37.2766 9.67829 37.9814 9.81905 38.6336 10.1013ZM35.1888 12.0874C34.8445 12.464 34.63 12.9409 34.5768 13.448H38.5428C38.542 13.1856 38.487 12.9262 38.3813 12.6859C38.2756 12.4457 38.1214 12.2297 37.9284 12.0516C37.548 11.7297 37.0618 11.5596 36.5634 11.5742C36.3112 11.5599 36.0587 11.5981 35.8221 11.6865C35.5854 11.7748 35.3698 11.9114 35.1888 12.0874Z" fill="black"/>
  <path d="M47.4214 13.0757C47.3814 12.7586 47.2676 12.4553 47.0891 12.1901C46.9487 12.0104 46.7663 11.8679 46.5579 11.7751C46.3495 11.6823 46.1215 11.642 45.8938 11.6577C45.1177 11.6577 44.5862 12.042 44.2993 12.8107C44.1308 13.3347 44.054 13.8838 44.0722 14.4339C44.0544 14.9613 44.1313 15.4876 44.2993 15.9879C44.3979 16.318 44.6047 16.6054 44.8865 16.8041C45.1683 17.0028 45.5087 17.1012 45.8532 17.0836C46.3934 17.0836 46.7767 16.9388 47.003 16.6491C47.2457 16.3198 47.3892 15.928 47.4166 15.52H49.7665C49.7041 16.2393 49.4407 16.9266 49.0063 17.5037C48.2844 18.5079 47.215 19.0108 45.7982 19.0124C44.3814 19.014 43.3383 18.5946 42.6689 17.7544C41.9996 16.9141 41.6657 15.8264 41.6673 14.4912C41.6673 12.9826 42.0362 11.8097 42.7741 10.9726C43.512 10.1356 44.5304 9.71622 45.8293 9.71463C46.9337 9.71463 47.8381 9.9613 48.5426 10.4546C49.247 10.948 49.6629 11.8232 49.7904 13.0804L47.4214 13.0757Z" fill="black"/>
  <path d="M57.2323 10.1419C57.6677 10.3254 58.0446 10.6242 58.3224 11.0061C58.5506 11.3031 58.7024 11.6514 58.7646 12.0206C58.8311 12.5837 58.8582 13.1509 58.8459 13.7178V18.8835H56.496V13.5292C56.5136 13.1333 56.4314 12.7394 56.2569 12.3834C56.049 11.9728 55.6545 11.7699 55.0616 11.7699C54.8004 11.7536 54.539 11.8003 54.2998 11.9063C54.0605 12.0123 53.8503 12.1743 53.6871 12.3786C53.3683 12.7844 53.209 13.3645 53.209 14.1188V18.893H50.9236V7.0387H53.2257V11.2281C53.5003 10.7701 53.9 10.4 54.3779 10.161C54.8097 9.95966 55.2808 9.85613 55.7573 9.85786C56.2631 9.85239 56.7648 9.94901 57.2323 10.1419Z" fill="black"/>
  <path d="M62.929 9.04388H60.5958V6.92175H62.929V9.04388ZM60.5958 10.0918H62.929V18.8811H60.5958V10.0918Z" fill="black"/>
  <path d="M70.4545 10.1014C71.0757 10.3817 71.6039 10.833 71.9773 11.4023C72.3453 11.9472 72.5847 12.5683 72.6778 13.2189C72.749 13.7977 72.7746 14.3811 72.7543 14.9639H66.3356C66.3722 15.8439 66.679 16.4622 67.256 16.8186C67.6391 17.0468 68.0795 17.161 68.5254 17.1481C68.885 17.1753 69.2445 17.0938 69.557 16.9141C69.8696 16.7344 70.1207 16.4649 70.2776 16.1407H72.6276C72.5207 16.7481 72.2216 17.3053 71.7741 17.7305C70.9853 18.5851 69.8808 19.0124 68.4608 19.0124C67.3297 19.0289 66.229 18.6459 65.3531 17.931C64.459 17.2101 64.0112 16.0365 64.0096 14.4101C64.0096 12.8903 64.4144 11.723 65.224 10.9082C66.0336 10.0934 67.0822 9.68679 68.37 9.68838C69.0864 9.67591 69.7972 9.81673 70.4545 10.1014ZM67.0121 12.0874C66.6668 12.4634 66.4522 12.9406 66.4001 13.4481H70.3637C70.3614 13.1848 70.3045 12.9248 70.1967 12.6845C70.0889 12.4441 69.9326 12.2287 69.7374 12.0516C69.3567 11.7301 68.8707 11.5601 68.3724 11.5742C68.1213 11.5609 67.8702 11.5996 67.6349 11.6879C67.3995 11.7763 67.1851 11.9123 67.005 12.0874H67.0121Z" fill="black"/>
  <path d="M86.4475 6.99573V9.09876H82.8855V18.8859H80.3826V9.09876H76.7967V6.99573H86.4475Z" fill="black"/>
  <path d="M89.5361 13.5364C89.8496 13.5086 90.1581 13.4404 90.4541 13.3335C90.5962 13.2921 90.7212 13.2061 90.8108 13.0884C90.9003 12.9706 90.9496 12.8273 90.9513 12.6794C90.9664 12.5319 90.9385 12.3832 90.8711 12.2511C90.8037 12.1191 90.6996 12.0092 90.5712 11.9347C90.2203 11.7773 89.8365 11.7069 89.4524 11.7294C88.9026 11.7294 88.5129 11.8638 88.2834 12.1328C88.1041 12.3677 87.991 12.6463 87.9559 12.9396H85.7351C85.7531 12.2568 85.9791 11.5956 86.3829 11.0443C86.9949 10.2693 88.0444 9.88175 89.5313 9.88175C90.4245 9.8653 91.3087 10.0617 92.1107 10.4547C92.8614 10.8366 93.2367 11.5527 93.2367 12.603V16.6348C93.2367 16.9165 93.2367 17.2555 93.2534 17.6518C93.2482 17.8643 93.2949 18.0749 93.3897 18.2652C93.4774 18.382 93.5945 18.4734 93.7292 18.5302V18.8692H91.2262C91.1608 18.7082 91.1119 18.5411 91.0804 18.3703C91.0541 18.2151 91.0326 18.0361 91.0159 17.8379C90.6933 18.1837 90.3211 18.4798 89.9114 18.7164C89.3957 19.0054 88.8126 19.1529 88.2213 19.1437C87.4975 19.1707 86.7896 18.9282 86.2347 18.4634C85.7136 18.0074 85.4506 17.3653 85.4506 16.5322C85.4506 15.4548 85.8705 14.6774 86.7104 14.2C87.3463 13.8838 88.0368 13.6918 88.7448 13.6343L89.5361 13.5364ZM90.9441 14.6082C90.8024 14.6959 90.6527 14.7702 90.4971 14.8302C90.2951 14.8986 90.0881 14.9512 89.8779 14.9878L89.3544 15.0832C88.9877 15.1288 88.6308 15.2337 88.2978 15.3936C88.1241 15.4886 87.9808 15.6306 87.8844 15.8033C87.788 15.976 87.7423 16.1724 87.7527 16.3699C87.7384 16.5276 87.7609 16.6864 87.8186 16.8339C87.8763 16.9814 87.9675 17.1134 88.085 17.2197C88.3161 17.3975 88.6015 17.4902 88.893 17.4823C89.3902 17.4844 89.8757 17.3317 90.282 17.0454C90.7075 16.7574 90.9282 16.2282 90.9441 15.458V14.6082Z" fill="black"/>
  <path d="M97.1525 18.8811H94.8503V6.99573H97.1525V18.8811Z" fill="black"/>
  <path d="M104.685 10.1014C105.306 10.3817 105.834 10.833 106.208 11.4023C106.577 11.9467 106.816 12.568 106.908 13.2189C106.98 13.7977 107.005 14.3811 106.985 14.9639H100.576C100.611 15.8439 100.918 16.4622 101.496 16.8186C101.879 17.0468 102.32 17.161 102.766 17.1481C103.125 17.1753 103.485 17.0938 103.797 16.9141C104.11 16.7345 104.361 16.4649 104.518 16.1407H106.868C106.761 16.7481 106.462 17.3053 106.014 17.7305C105.217 18.5851 104.113 19.0124 102.701 19.0124C101.57 19.0289 100.469 18.6459 99.5932 17.931C98.6992 17.2101 98.2513 16.0365 98.2497 14.4101C98.2497 12.8903 98.6545 11.723 99.4641 10.9082C100.274 10.0934 101.322 9.6868 102.61 9.68839C103.323 9.67669 104.031 9.8175 104.685 10.1014ZM101.243 12.0874C100.898 12.4641 100.684 12.9409 100.631 13.4481H104.594C104.594 13.1858 104.539 12.9265 104.434 12.6862C104.329 12.446 104.175 12.2299 103.982 12.0516C103.602 11.7301 103.116 11.5601 102.617 11.5742C102.365 11.5599 102.113 11.5981 101.876 11.6865C101.639 11.7748 101.424 11.9114 101.243 12.0874Z" fill="black"/>
  <path d="M114.8 10.5955C115.377 11.0729 115.665 11.8622 115.665 12.9635V18.8811H113.306V13.5364C113.325 13.1722 113.262 12.8083 113.121 12.4717C112.897 12.0182 112.471 11.7938 111.84 11.7938C111.063 11.7938 110.532 12.1232 110.243 12.7845C110.081 13.2117 110.004 13.6668 110.019 14.1236V18.8811H107.719V10.1085H109.947V11.3904C110.169 11.0207 110.452 10.6907 110.783 10.4141C111.305 10.0429 111.936 9.85565 112.576 9.88175C113.379 9.84816 114.167 10.1012 114.8 10.5955Z" fill="black"/>
  <path d="M116.454 11.641V10.0035H117.68V7.55194H119.959V10.0035H121.393V11.641H119.959V16.2863C119.959 16.6476 120.004 16.872 120.095 16.9595C120.188 17.0478 120.468 17.0932 120.936 17.0932H121.159H121.398V18.8095L120.308 18.8501C119.221 18.8883 118.478 18.7005 118.08 18.2867C117.819 18.0241 117.69 17.6159 117.69 17.0693V11.641H116.454Z" fill="black"/>
  <path d="M9.75551 20.6619C8.86789 20.6619 8.01662 20.3098 7.38897 19.683C6.76132 19.0563 6.40871 18.2063 6.40871 17.3199V11.5097C6.38934 10.9195 6.50602 10.3328 6.74974 9.79472C6.99345 9.25667 7.3577 8.78172 7.81437 8.40651C8.95706 7.45167 10.4822 7.56148 10.8074 7.56148H15.7582C16.2691 7.54371 16.7531 7.32857 17.1082 6.96141C17.4633 6.59425 17.6618 6.10375 17.6618 5.59332C17.6618 5.08288 17.4633 4.59239 17.1082 4.22523C16.7531 3.85807 16.2691 3.64293 15.7582 3.62516H3.75757C3.49295 3.61595 3.22919 3.66005 2.98201 3.75482C2.73483 3.84958 2.50929 3.99308 2.31883 4.17674C2.12838 4.36041 1.97691 4.5805 1.87346 4.82387C1.77001 5.06725 1.71669 5.32893 1.71669 5.59332C1.71669 5.85771 1.77001 6.11939 1.87346 6.36277C1.97691 6.60614 2.12838 6.82622 2.31883 7.00989C2.50929 7.19356 2.73483 7.33706 2.98201 7.43182C3.22919 7.52659 3.49295 7.57068 3.75757 7.56148H5.16801C5.25811 7.56148 5.34732 7.5792 5.43056 7.61363C5.5138 7.64806 5.58944 7.69852 5.65315 7.76214C5.71686 7.82576 5.76739 7.90128 5.80187 7.9844C5.83635 8.06752 5.8541 8.15661 5.8541 8.24658C5.8541 8.33654 5.83635 8.42563 5.80187 8.50875C5.76739 8.59187 5.71686 8.6674 5.65315 8.73101C5.58944 8.79463 5.5138 8.84509 5.43056 8.87952C5.34732 8.91395 5.25811 8.93167 5.16801 8.93167H3.75757C3.31806 8.93167 2.88286 8.84523 2.4768 8.67728C2.07075 8.50934 1.7018 8.26317 1.39102 7.95284C1.08024 7.64252 0.833719 7.2741 0.665526 6.86864C0.497334 6.46318 0.410767 6.02861 0.410767 5.58974C0.410767 5.15087 0.497334 4.7163 0.665526 4.31084C0.833719 3.90537 1.08024 3.53696 1.39102 3.22663C1.7018 2.91631 2.07075 2.67014 2.4768 2.50219C2.88286 2.33424 3.31806 2.2478 3.75757 2.2478H15.7582C16.6459 2.2478 17.4971 2.5999 18.1248 3.22663C18.7524 3.85337 19.105 4.7034 19.105 5.58974C19.105 6.47607 18.7524 7.32611 18.1248 7.95284C17.4971 8.57958 16.6459 8.93167 15.7582 8.93167H13.0975C13.0975 8.95316 13.0975 8.97225 13.0975 8.99374V17.3223C13.0969 18.2074 12.7447 19.0561 12.1181 19.6822C11.4916 20.3083 10.6419 20.6606 9.75551 20.6619ZM10.4727 8.93167C10.0782 8.93167 9.25349 8.98419 8.68215 9.45922C8.39147 9.69518 8.15824 9.99396 8.00005 10.333C7.84186 10.6721 7.76284 11.0426 7.76895 11.4166V17.3223C7.76895 17.5809 7.81996 17.837 7.91908 18.076C8.01819 18.3149 8.16346 18.532 8.3466 18.7149C8.52974 18.8977 8.74715 19.0428 8.98644 19.1418C9.22572 19.2407 9.48218 19.2917 9.74117 19.2917C10.0002 19.2917 10.2566 19.2407 10.4959 19.1418C10.7352 19.0428 10.9526 18.8977 11.1357 18.7149C11.3189 18.532 11.4642 18.3149 11.5633 18.076C11.6624 17.837 11.7134 17.5809 11.7134 17.3223V8.99374C11.7122 8.97307 11.7122 8.95234 11.7134 8.93167H10.4727Z" fill="url(#paint0_linear_41_36)"/>
  <path d="M20.6972 3.00452C21.3322 3.00452 21.847 2.49045 21.847 1.85632C21.847 1.22219 21.3322 0.70813 20.6972 0.70813C20.0621 0.70813 19.5473 1.22219 19.5473 1.85632C19.5473 2.49045 20.0621 3.00452 20.6972 3.00452Z" fill="url(#paint1_linear_41_36)"/>
  <defs>
  <linearGradient id="paint0_linear_41_36" x1="14.7112" y1="0.626964" x2="1.9959" y2="17.9845" gradientUnits="userSpaceOnUse">
  <stop stop-color="#5AD9A3"/>
  <stop offset="1" stop-color="#5E2DC3"/>
  </linearGradient>
  <linearGradient id="paint1_linear_41_36" x1="21.3737" y1="1.028" x2="17.0591" y2="6.31679" gradientUnits="userSpaceOnUse">
  <stop stop-color="#5AD9A3"/>
  <stop offset="0.31" stop-color="#5BA4AD"/>
  </linearGradient>
  </defs>
  </svg>
